<?xml version="1.0" standalone="no"?>
<!DOCTYPE svg PUBLIC "-//W3C//DTD SVG 20010904//EN"
 "http://www.w3.org/TR/2001/REC-SVG-20010904/DTD/svg10.dtd">
<svg version="1.0" xmlns="http://www.w3.org/2000/svg"
 width="2048.000000pt" height="2048.000000pt" viewBox="0 0 2048.000000 2048.000000"
 preserveAspectRatio="xMidYMid meet">

<g transform="translate(0.000000,2048.000000) scale(0.100000,-0.100000)"
fill="#000000" stroke="none">
<path d="M10037 14999 c-168 -25 -264 -221 -183 -377 35 -68 118 -122 205
-134 22 -3 29 -18 71 -156 l47 -152 -33 -21 c-111 -68 -172 -248 -131 -381
l15 -47 -171 -103 c-95 -57 -248 -154 -341 -215 -93 -62 -174 -113 -178 -113
-5 0 -24 11 -41 24 -33 24 -76 40 -139 50 -35 6 -37 9 -48 59 -14 65 -82 470
-106 636 -18 121 -18 123 2 134 35 19 97 90 117 136 14 32 21 66 20 111 -1
294 -391 385 -520 123 -55 -113 -28 -252 63 -333 40 -34 107 -69 136 -70 17 0
21 -14 32 -95 10 -71 106 -647 115 -685 8 -35 7 -37 -30 -57 l-39 -21 -102 81
c-160 126 -468 339 -657 454 -33 20 -33 21 -35 99 -2 87 -15 122 -67 173 -43
43 -82 62 -145 68 -104 11 -200 -40 -243 -130 -25 -51 -28 -150 -8 -200 52
-122 201 -180 327 -126 l49 21 192 -128 c180 -120 453 -316 546 -391 l41 -34
-31 -62 c-27 -54 -31 -72 -30 -142 0 -86 20 -148 67 -210 l24 -31 -22 -30
c-93 -122 -285 -508 -342 -687 l-17 -56 -91 -3 -91 -3 -68 140 c-38 77 -91
188 -118 247 l-50 106 27 29 c65 70 102 199 83 296 -21 114 -84 198 -188 249
-38 19 -62 23 -141 23 -117 0 -177 -24 -244 -95 -77 -82 -91 -119 -91 -240 0
-98 2 -109 30 -158 66 -120 197 -192 325 -179 l58 6 114 -240 115 -241 -62
-62 c-34 -33 -68 -71 -76 -83 l-14 -23 -235 74 c-129 41 -267 83 -306 95 l-70
21 -13 50 c-16 63 -84 141 -143 165 -56 23 -151 23 -206 0 -52 -21 -124 -100
-140 -153 -51 -169 73 -332 252 -332 63 0 142 35 178 79 15 17 32 31 38 31 15
0 241 -66 440 -128 l155 -49 -3 -74 c-3 -85 17 -173 54 -237 l26 -43 -89 -97
c-68 -74 -219 -246 -239 -270 -1 -2 -23 4 -48 12 -105 36 -247 11 -330 -58
l-43 -35 -95 55 -95 54 -5 64 c-17 202 -238 297 -389 167 -53 -44 -78 -101
-79 -170 0 -79 19 -130 67 -178 75 -75 185 -90 279 -39 l40 23 101 -60 101
-59 -10 -30 c-6 -16 -8 -61 -6 -98 7 -92 43 -164 113 -229 72 -65 145 -93 247
-93 65 -1 85 4 140 30 35 17 75 41 89 53 l26 21 108 -62 c138 -78 411 -200
585 -260 l135 -48 12 -71 c11 -65 44 -150 75 -193 10 -14 6 -24 -29 -65 -23
-26 -88 -105 -145 -175 -92 -114 -106 -127 -128 -122 -14 3 -61 8 -105 11 -65
4 -90 1 -136 -16 -68 -26 -138 -91 -176 -163 -24 -47 -27 -64 -28 -148 0 -84
3 -102 28 -151 32 -66 99 -132 165 -162 67 -31 207 -31 274 0 66 30 133 96
165 162 23 47 27 69 28 142 0 80 -3 92 -36 156 l-35 70 63 74 c35 41 98 116
140 167 73 87 94 104 108 83 11 -18 121 -54 184 -60 l65 -6 17 -80 c10 -44 49
-221 88 -394 l71 -313 -23 -18 c-13 -10 -36 -42 -52 -72 -64 -114 -27 -266 80
-333 39 -24 61 -30 119 -33 113 -6 195 39 241 131 30 60 34 156 9 215 -28 69
-119 142 -176 142 -13 0 -29 4 -35 8 -10 6 -128 494 -173 714 -12 59 -8 78 14
78 7 0 74 -66 148 -147 232 -253 639 -645 876 -843 41 -35 41 -35 32 -80 -18
-95 23 -195 100 -246 145 -96 337 -32 385 128 19 64 19 92 1 152 -32 105 -113
167 -230 173 -57 4 -78 1 -109 -16 l-38 -20 -121 106 c-186 164 -379 344 -538
503 -138 138 -246 258 -225 249 6 -2 51 -25 100 -50 172 -88 462 -197 703
-264 202 -56 455 -106 464 -92 4 7 8 42 8 78 l0 66 -72 13 c-220 38 -566 141
-783 232 -184 77 -464 222 -480 248 -2 4 5 34 17 66 28 77 31 223 6 304 -32
103 -117 209 -213 265 -16 10 -11 33 61 303 75 276 80 293 104 298 77 17 153
72 186 136 21 41 29 133 15 184 -40 148 -217 222 -359 150 -124 -63 -166 -217
-94 -349 14 -27 39 -57 54 -69 16 -11 26 -23 23 -28 -3 -5 -37 -127 -76 -272
-39 -144 -73 -270 -76 -278 -3 -12 -22 -15 -86 -16 -57 -1 -98 -7 -135 -22
l-53 -20 -16 26 c-9 15 -26 43 -39 63 -36 57 -119 228 -163 333 -36 87 -101
275 -101 294 0 4 26 20 57 37 108 56 196 168 228 290 48 186 -30 396 -184 496
l-49 31 18 52 c40 117 153 355 244 515 54 94 99 171 99 171 1 0 24 -7 51 -15
62 -19 139 -19 201 0 27 8 49 13 50 12 4 -9 135 -217 208 -331 l89 -139 -22
-48 c-31 -66 -30 -140 2 -211 58 -126 216 -178 340 -111 123 66 171 211 109
330 -47 92 -170 155 -264 133 -33 -7 -39 -5 -51 13 -7 12 -75 120 -150 240
l-137 218 31 47 c40 60 60 131 60 206 -1 53 -8 84 -34 146 -4 11 30 38 127
102 145 95 500 315 533 330 16 8 29 4 59 -16 60 -41 137 -59 223 -53 132 10
238 80 294 195 30 61 33 74 33 162 -1 113 -20 164 -89 238 -64 68 -143 106
-231 110 l-71 4 -46 146 -47 147 35 34 c75 73 101 175 69 271 -40 121 -155
188 -288 169z m83 -22 c0 -5 7 -6 16 -3 15 6 15 4 3 -10 -11 -13 -11 -18 -1
-21 6 -3 12 -8 12 -13 0 -15 -39 -18 -66 -4 -15 8 -34 13 -43 12 -9 -2 -15 3
-13 10 1 6 -3 12 -9 12 -5 0 -7 5 -4 11 4 6 13 8 21 5 7 -3 16 -1 19 4 7 12
65 10 65 -3z m20 -87 c0 -5 -5 -10 -11 -10 -5 0 -7 5 -4 10 3 6 8 10 11 10 2
0 4 -4 4 -10z m29 -66 c31 -33 33 -40 28 -87 -4 -43 -10 -56 -38 -79 -116 -97
-269 77 -156 179 31 28 46 33 92 28 30 -3 48 -13 74 -41z m-1245 -248 c59 -25
97 -99 82 -160 -10 -40 -55 -85 -96 -97 -33 -10 -47 -9 -86 6 -57 21 -84 62
-84 125 0 103 90 165 184 126z m1517 -513 c66 -34 110 -98 117 -173 10 -105
-74 -208 -178 -218 -234 -22 -319 300 -105 399 56 26 103 23 166 -8z m-1245
-862 c70 -32 124 -118 124 -197 0 -16 -11 -52 -24 -81 -57 -123 -203 -160
-308 -79 -67 50 -89 97 -86 178 3 55 9 75 33 109 58 82 169 112 261 70z
m-1296 -312 c109 -62 120 -219 20 -302 -132 -111 -331 20 -289 189 14 55 71
118 121 133 43 13 103 5 148 -20z m572 -1105 c104 -35 170 -128 176 -250 3
-57 0 -81 -18 -122 -42 -98 -152 -172 -255 -172 -95 0 -203 67 -247 155 -32
60 -36 169 -10 228 33 74 69 114 135 147 70 35 145 40 219 14z m993 -499 c59
-29 73 -102 29 -154 -22 -26 -33 -31 -69 -31 -32 0 -52 7 -72 24 -51 44 -33
140 32 167 30 12 44 11 80 -6z m-1241 -196 c30 -10 80 -22 110 -25 56 -7 56
-7 66 -48 56 -218 154 -452 274 -655 l56 -93 -26 -30 c-14 -17 -37 -54 -51
-82 -14 -28 -26 -52 -27 -53 -4 -4 -235 81 -332 122 -49 21 -171 77 -271 126
l-182 89 11 31 c6 17 8 65 6 108 -4 61 -11 89 -37 140 -27 53 -30 66 -19 80 7
9 80 91 162 183 l148 168 29 -21 c16 -11 54 -29 83 -40z m-1353 -68 c36 -36
37 -70 3 -110 -50 -60 -144 -26 -144 51 1 80 85 115 141 59z m726 -288 c45
-23 91 -85 103 -137 18 -83 -37 -188 -117 -222 -18 -8 -53 -14 -78 -14 -144 0
-238 155 -174 287 49 101 164 138 266 86z m1565 -529 c190 -64 242 -329 91
-465 -60 -54 -118 -73 -207 -67 -110 7 -177 51 -228 148 -32 62 -33 186 -1
246 34 65 69 100 125 128 62 31 149 35 220 10z m-826 -1043 c23 -10 54 -36 70
-57 26 -33 29 -45 29 -110 0 -58 -4 -78 -21 -100 -36 -49 -70 -67 -133 -72
-51 -4 -67 -1 -105 22 -60 35 -90 86 -90 151 1 136 129 221 250 166z m2293
-677 c74 -62 34 -173 -62 -174 -55 0 -97 43 -97 100 0 87 92 130 159 74z"/>
<path d="M10076 14968 c3 -4 -3 -8 -13 -8 -15 0 -16 -2 -3 -10 9 -6 17 -5 21
2 4 6 15 8 24 4 10 -4 15 -2 13 6 -2 6 -14 12 -26 13 -11 1 -19 -2 -16 -7z"/>
<path d="M11348 13124 c-51 -27 -74 -110 -45 -160 7 -11 38 -50 70 -85 182
-202 337 -496 408 -772 54 -212 73 -465 49 -665 -34 -291 -145 -592 -308 -837
-57 -84 -67 -106 -66 -140 1 -55 27 -91 79 -111 86 -32 133 4 243 186 203 337
302 698 302 1103 0 328 -60 601 -196 886 -100 211 -260 448 -377 559 -48 44
-61 52 -94 52 -21 -1 -50 -7 -65 -16z"/>
<path d="M11043 12725 c-39 -17 -63 -61 -63 -115 0 -35 7 -48 53 -98 143 -156
257 -391 302 -624 61 -318 -6 -653 -184 -924 -58 -87 -64 -122 -28 -175 41
-60 105 -76 164 -39 91 55 232 358 283 608 91 451 -46 974 -341 1296 -78 85
-118 101 -186 71z"/>
<path d="M10729 12303 c-62 -38 -78 -124 -34 -184 120 -164 156 -257 163 -421
5 -137 -14 -226 -73 -343 -25 -49 -45 -101 -45 -119 1 -96 113 -158 195 -107
59 36 140 217 164 371 40 246 -29 534 -175 733 -60 82 -134 108 -195 70z"/>
<path d="M10403 11943 c-32 -6 -79 -56 -86 -91 -7 -33 2 -72 27 -120 20 -38
20 -79 1 -112 -19 -33 -19 -94 0 -130 30 -59 120 -78 183 -40 110 67 118 327
15 441 -29 32 -91 63 -113 58 -3 -1 -15 -4 -27 -6z"/>
<path d="M7462 7010 c-202 -53 -354 -202 -428 -420 -15 -43 -19 -84 -19 -195
0 -157 16 -222 82 -343 73 -132 239 -251 398 -283 84 -17 238 -14 315 5 231
58 407 242 456 476 34 160 5 354 -72 487 -45 76 -159 183 -236 221 -147 72
-341 92 -496 52z m264 -181 c120 -22 212 -88 277 -199 58 -100 74 -263 37
-383 -25 -81 -88 -176 -143 -217 -155 -114 -390 -102 -528 27 -94 87 -139 198
-139 336 1 297 217 487 496 436z"/>
<path d="M8990 7009 c-122 -31 -196 -73 -280 -158 -127 -127 -180 -263 -180
-455 0 -121 19 -205 67 -305 72 -151 243 -284 405 -314 55 -11 63 -16 96 -61
42 -58 149 -148 209 -177 169 -82 369 -61 502 51 l23 20 -25 33 c-14 17 -41
50 -60 72 -33 38 -36 39 -54 23 -38 -34 -115 -60 -178 -60 -66 0 -117 19 -175
68 l-32 27 54 17 c208 64 369 240 414 451 23 107 14 260 -20 365 -85 263 -316
425 -606 423 -51 0 -115 -8 -160 -20z m308 -199 c238 -82 344 -400 217 -651
-118 -232 -465 -275 -647 -81 -82 87 -120 192 -120 325 1 180 87 329 227 393
99 46 216 50 323 14z"/>
<path d="M5670 7002 c0 -12 93 -249 300 -764 l184 -458 111 0 112 0 13 28 c11
25 161 393 386 950 52 129 94 237 94 240 0 4 -49 7 -109 7 l-109 0 -47 -115
c-26 -63 -107 -270 -181 -460 -74 -190 -139 -356 -145 -370 -10 -24 -11 -23
-28 25 -17 47 -92 241 -278 720 l-78 200 -113 3 c-61 1 -112 -1 -112 -6z"/>
<path d="M10110 6603 c0 -449 4 -481 61 -594 57 -113 168 -198 306 -234 74
-19 242 -19 317 0 89 23 162 62 215 115 59 59 92 115 122 205 21 65 23 91 27
380 2 171 1 361 -3 423 l-7 112 -103 0 -104 0 -3 -417 c-3 -403 -4 -420 -24
-464 -54 -116 -145 -172 -279 -172 -177 0 -280 97 -305 285 -5 40 -10 229 -10
421 l0 347 -105 0 -105 0 0 -407z"/>
<path d="M11560 6395 l0 -615 105 0 105 0 0 615 0 615 -105 0 -105 0 0 -615z"/>
<path d="M12190 6395 l0 -615 110 0 111 0 -3 425 c-2 234 0 424 4 423 11 -5
262 -326 599 -768 36 -47 68 -84 72 -82 4 1 48 2 97 2 l90 0 0 615 0 615 -110
0 -110 0 0 -431 0 -431 -68 88 c-75 99 -379 487 -517 662 l-89 112 -93 0 -93
0 0 -615z"/>
<path d="M14046 6978 c-7 -18 -73 -170 -146 -338 -144 -334 -360 -846 -360
-855 0 -3 50 -4 112 -3 l112 3 54 133 55 132 299 0 298 0 11 -27 c17 -48 89
-217 97 -231 6 -9 37 -12 119 -10 l110 3 -64 155 c-107 258 -373 879 -419 978
l-43 92 -110 0 -111 0 -14 -32z m235 -465 c56 -142 104 -266 107 -275 4 -17
-11 -18 -221 -18 l-225 0 109 265 c60 145 109 269 109 275 0 42 32 -24 121
-247z"/>
</g>
</svg>
